<mxfile host="app.diagrams.net" modified="2021-12-31T07:39:30.620Z" agent="5.0 (Windows NT 10.0; Win64; x64) AppleWebKit/537.36 (KHTML, like Gecko) Chrome/96.0.4664.110 Safari/537.36" etag="B--U33c2a_rhNbP_Rqtf" version="16.1.0" type="github">
  <diagram id="C5RBs43oDa-KdzZeNtuy" name="Page-1">
    <mxGraphModel dx="782" dy="507" grid="1" gridSize="10" guides="1" tooltips="1" connect="1" arrows="1" fold="1" page="1" pageScale="1" pageWidth="827" pageHeight="1169" math="0" shadow="0">
      <root>
        <mxCell id="WIyWlLk6GJQsqaUBKTNV-0" />
        <mxCell id="WIyWlLk6GJQsqaUBKTNV-1" parent="WIyWlLk6GJQsqaUBKTNV-0" />
        <mxCell id="6y9VKtrtzMZBTGJmUXlC-0" value="CHOCOLATE" style="swimlane;fontStyle=0;childLayout=stackLayout;horizontal=1;startSize=30;horizontalStack=0;resizeParent=1;resizeParentMax=0;resizeLast=0;collapsible=1;marginBottom=0;fillColor=#f5f5f5;fontColor=#333333;strokeColor=#666666;" parent="WIyWlLk6GJQsqaUBKTNV-1" vertex="1">
          <mxGeometry x="80" y="370" width="186" height="120" as="geometry" />
        </mxCell>
        <mxCell id="6y9VKtrtzMZBTGJmUXlC-1" value="ID                             NUMBER(8)" style="text;strokeColor=default;fillColor=none;align=right;verticalAlign=middle;spacingLeft=4;spacingRight=4;overflow=hidden;points=[[0,0.5],[1,0.5]];portConstraint=eastwest;rotatable=0;" parent="6y9VKtrtzMZBTGJmUXlC-0" vertex="1">
          <mxGeometry y="30" width="186" height="30" as="geometry" />
        </mxCell>
        <mxCell id="6y9VKtrtzMZBTGJmUXlC-2" value="NAME                VARCHAR(200)" style="text;strokeColor=default;fillColor=none;align=right;verticalAlign=middle;spacingLeft=4;spacingRight=4;overflow=hidden;points=[[0,0.5],[1,0.5]];portConstraint=eastwest;rotatable=0;" parent="6y9VKtrtzMZBTGJmUXlC-0" vertex="1">
          <mxGeometry y="60" width="186" height="30" as="geometry" />
        </mxCell>
        <mxCell id="6y9VKtrtzMZBTGJmUXlC-3" value="QUANTITY           NUMBER(100)" style="text;strokeColor=none;fillColor=none;align=right;verticalAlign=middle;spacingLeft=4;spacingRight=4;overflow=hidden;points=[[0,0.5],[1,0.5]];portConstraint=eastwest;rotatable=0;" parent="6y9VKtrtzMZBTGJmUXlC-0" vertex="1">
          <mxGeometry y="90" width="186" height="30" as="geometry" />
        </mxCell>
        <mxCell id="6y9VKtrtzMZBTGJmUXlC-4" value="COOKING" style="swimlane;fontStyle=0;childLayout=stackLayout;horizontal=1;startSize=30;horizontalStack=0;resizeParent=1;resizeParentMax=0;resizeLast=0;collapsible=1;marginBottom=0;strokeColor=#666666;align=center;fillColor=#f5f5f5;fontColor=#333333;" parent="WIyWlLk6GJQsqaUBKTNV-1" vertex="1">
          <mxGeometry x="80" y="40" width="160" height="120" as="geometry" />
        </mxCell>
        <mxCell id="6y9VKtrtzMZBTGJmUXlC-5" value="ID                     NUMBER(8)" style="text;strokeColor=default;fillColor=none;align=right;verticalAlign=middle;spacingLeft=4;spacingRight=4;overflow=hidden;points=[[0,0.5],[1,0.5]];portConstraint=eastwest;rotatable=0;" parent="6y9VKtrtzMZBTGJmUXlC-4" vertex="1">
          <mxGeometry y="30" width="160" height="30" as="geometry" />
        </mxCell>
        <mxCell id="6y9VKtrtzMZBTGJmUXlC-6" value="TASTE_ID        " style="text;strokeColor=default;fillColor=none;align=left;verticalAlign=middle;spacingLeft=4;spacingRight=4;overflow=hidden;points=[[0,0.5],[1,0.5]];portConstraint=eastwest;rotatable=0;" parent="6y9VKtrtzMZBTGJmUXlC-4" vertex="1">
          <mxGeometry y="60" width="160" height="30" as="geometry" />
        </mxCell>
        <mxCell id="6y9VKtrtzMZBTGJmUXlC-7" value="QUANTITY   NUMBER(100)" style="text;strokeColor=none;fillColor=none;align=right;verticalAlign=middle;spacingLeft=4;spacingRight=4;overflow=hidden;points=[[0,0.5],[1,0.5]];portConstraint=eastwest;rotatable=0;" parent="6y9VKtrtzMZBTGJmUXlC-4" vertex="1">
          <mxGeometry y="90" width="160" height="30" as="geometry" />
        </mxCell>
        <mxCell id="6y9VKtrtzMZBTGJmUXlC-8" value="BASKET" style="swimlane;fontStyle=0;childLayout=stackLayout;horizontal=1;startSize=30;horizontalStack=0;resizeParent=1;resizeParentMax=0;resizeLast=0;collapsible=1;marginBottom=0;strokeColor=#666666;align=center;fillColor=#f5f5f5;fontColor=#333333;" parent="WIyWlLk6GJQsqaUBKTNV-1" vertex="1">
          <mxGeometry x="320" y="290" width="180" height="180" as="geometry" />
        </mxCell>
        <mxCell id="6y9VKtrtzMZBTGJmUXlC-9" value="ID                           NUMBER(8)" style="text;strokeColor=default;fillColor=none;align=right;verticalAlign=middle;spacingLeft=4;spacingRight=4;overflow=hidden;points=[[0,0.5],[1,0.5]];portConstraint=eastwest;rotatable=0;" parent="6y9VKtrtzMZBTGJmUXlC-8" vertex="1">
          <mxGeometry y="30" width="180" height="30" as="geometry" />
        </mxCell>
        <mxCell id="6y9VKtrtzMZBTGJmUXlC-14" value="FIRST_TASTE_ID&amp;nbsp; &amp;nbsp; &amp;nbsp; &amp;nbsp; &amp;nbsp; &amp;nbsp; &amp;nbsp; &amp;nbsp; &amp;nbsp; &amp;nbsp; &amp;nbsp;" style="text;html=1;strokeColor=default;fillColor=none;align=left;verticalAlign=middle;whiteSpace=wrap;rounded=0;" parent="6y9VKtrtzMZBTGJmUXlC-8" vertex="1">
          <mxGeometry y="60" width="180" height="30" as="geometry" />
        </mxCell>
        <mxCell id="6y9VKtrtzMZBTGJmUXlC-15" value="SECOND_TASTE_ID&amp;nbsp; &amp;nbsp; &amp;nbsp; &amp;nbsp; &amp;nbsp; &amp;nbsp; &amp;nbsp; &amp;nbsp;&amp;nbsp;" style="text;html=1;strokeColor=none;fillColor=none;align=left;verticalAlign=middle;whiteSpace=wrap;rounded=0;" parent="6y9VKtrtzMZBTGJmUXlC-8" vertex="1">
          <mxGeometry y="90" width="180" height="30" as="geometry" />
        </mxCell>
        <mxCell id="6y9VKtrtzMZBTGJmUXlC-10" value="THIRD_TASTE_ID                   " style="text;strokeColor=default;fillColor=none;align=left;verticalAlign=middle;spacingLeft=4;spacingRight=4;overflow=hidden;points=[[0,0.5],[1,0.5]];portConstraint=eastwest;rotatable=0;" parent="6y9VKtrtzMZBTGJmUXlC-8" vertex="1">
          <mxGeometry y="120" width="180" height="30" as="geometry" />
        </mxCell>
        <mxCell id="6y9VKtrtzMZBTGJmUXlC-11" value="FOURTH_TASTE_ID               " style="text;strokeColor=default;fillColor=none;align=left;verticalAlign=middle;spacingLeft=4;spacingRight=4;overflow=hidden;points=[[0,0.5],[1,0.5]];portConstraint=eastwest;rotatable=0;" parent="6y9VKtrtzMZBTGJmUXlC-8" vertex="1">
          <mxGeometry y="150" width="180" height="30" as="geometry" />
        </mxCell>
        <mxCell id="6y9VKtrtzMZBTGJmUXlC-16" value="USER" style="swimlane;fontStyle=0;childLayout=stackLayout;horizontal=1;startSize=30;horizontalStack=0;resizeParent=1;resizeParentMax=0;resizeLast=0;collapsible=1;marginBottom=0;strokeColor=#666666;align=center;fillColor=#f5f5f5;fontColor=#333333;" parent="WIyWlLk6GJQsqaUBKTNV-1" vertex="1">
          <mxGeometry x="80" y="170" width="180" height="180" as="geometry" />
        </mxCell>
        <mxCell id="6y9VKtrtzMZBTGJmUXlC-17" value="ID                           NUMBER(8)" style="text;strokeColor=default;fillColor=none;align=right;verticalAlign=middle;spacingLeft=4;spacingRight=4;overflow=hidden;points=[[0,0.5],[1,0.5]];portConstraint=eastwest;rotatable=0;" parent="6y9VKtrtzMZBTGJmUXlC-16" vertex="1">
          <mxGeometry y="30" width="180" height="30" as="geometry" />
        </mxCell>
        <mxCell id="6y9VKtrtzMZBTGJmUXlC-20" value="EMAIL&amp;nbsp; &amp;nbsp; &amp;nbsp; &amp;nbsp; &amp;nbsp; &amp;nbsp; &amp;nbsp; &amp;nbsp; &amp;nbsp;VARCHAR(50)" style="text;html=1;strokeColor=default;fillColor=none;align=right;verticalAlign=middle;whiteSpace=wrap;rounded=0;" parent="6y9VKtrtzMZBTGJmUXlC-16" vertex="1">
          <mxGeometry y="60" width="180" height="30" as="geometry" />
        </mxCell>
        <mxCell id="6y9VKtrtzMZBTGJmUXlC-18" value="PASSWORD      VARCHAR(50)" style="text;strokeColor=default;fillColor=none;align=right;verticalAlign=middle;spacingLeft=4;spacingRight=4;overflow=hidden;points=[[0,0.5],[1,0.5]];portConstraint=eastwest;rotatable=0;" parent="6y9VKtrtzMZBTGJmUXlC-16" vertex="1">
          <mxGeometry y="90" width="180" height="30" as="geometry" />
        </mxCell>
        <mxCell id="6y9VKtrtzMZBTGJmUXlC-19" value="PHONE                NUMBER(11)" style="text;strokeColor=default;fillColor=none;align=right;verticalAlign=middle;spacingLeft=4;spacingRight=4;overflow=hidden;points=[[0,0.5],[1,0.5]];portConstraint=eastwest;rotatable=0;" parent="6y9VKtrtzMZBTGJmUXlC-16" vertex="1">
          <mxGeometry y="120" width="180" height="30" as="geometry" />
        </mxCell>
        <mxCell id="ypDXXTXjuSUmnG6Ys3WS-0" value="BASKET_ID" style="text;strokeColor=default;fillColor=none;align=left;verticalAlign=middle;spacingLeft=4;spacingRight=4;overflow=hidden;points=[[0,0.5],[1,0.5]];portConstraint=eastwest;rotatable=0;" vertex="1" parent="6y9VKtrtzMZBTGJmUXlC-16">
          <mxGeometry y="150" width="180" height="30" as="geometry" />
        </mxCell>
        <mxCell id="6y9VKtrtzMZBTGJmUXlC-21" value="ORDER" style="swimlane;fontStyle=0;childLayout=stackLayout;horizontal=1;startSize=30;horizontalStack=0;resizeParent=1;resizeParentMax=0;resizeLast=0;collapsible=1;marginBottom=0;strokeColor=#666666;align=center;fillColor=#f5f5f5;fontColor=#333333;" parent="WIyWlLk6GJQsqaUBKTNV-1" vertex="1">
          <mxGeometry x="320" y="40" width="160" height="180" as="geometry" />
        </mxCell>
        <mxCell id="6y9VKtrtzMZBTGJmUXlC-25" value="ID&amp;nbsp; &amp;nbsp; &amp;nbsp; &amp;nbsp; &amp;nbsp; &amp;nbsp; &amp;nbsp; &amp;nbsp; &amp;nbsp; &amp;nbsp; &amp;nbsp; NUMBER(8)" style="text;html=1;strokeColor=default;fillColor=none;align=right;verticalAlign=middle;whiteSpace=wrap;rounded=0;" parent="6y9VKtrtzMZBTGJmUXlC-21" vertex="1">
          <mxGeometry y="30" width="160" height="30" as="geometry" />
        </mxCell>
        <mxCell id="6y9VKtrtzMZBTGJmUXlC-26" value="&lt;div&gt;&lt;span&gt;USER_ID&lt;/span&gt;&lt;/div&gt;" style="text;html=1;strokeColor=default;fillColor=none;align=left;verticalAlign=middle;whiteSpace=wrap;rounded=0;" parent="6y9VKtrtzMZBTGJmUXlC-21" vertex="1">
          <mxGeometry y="60" width="160" height="30" as="geometry" />
        </mxCell>
        <mxCell id="6y9VKtrtzMZBTGJmUXlC-22" value="BASKET_ID" style="text;strokeColor=default;fillColor=none;align=left;verticalAlign=middle;spacingLeft=4;spacingRight=4;overflow=hidden;points=[[0,0.5],[1,0.5]];portConstraint=eastwest;rotatable=0;" parent="6y9VKtrtzMZBTGJmUXlC-21" vertex="1">
          <mxGeometry y="90" width="160" height="30" as="geometry" />
        </mxCell>
        <mxCell id="6y9VKtrtzMZBTGJmUXlC-23" value="STATUS       VARCHAR(20)" style="text;strokeColor=default;fillColor=none;align=right;verticalAlign=middle;spacingLeft=4;spacingRight=4;overflow=hidden;points=[[0,0.5],[1,0.5]];portConstraint=eastwest;rotatable=0;" parent="6y9VKtrtzMZBTGJmUXlC-21" vertex="1">
          <mxGeometry y="120" width="160" height="30" as="geometry" />
        </mxCell>
        <mxCell id="6y9VKtrtzMZBTGJmUXlC-24" value="ADRESS    VARCHAR(200)" style="text;strokeColor=default;fillColor=none;align=right;verticalAlign=middle;spacingLeft=4;spacingRight=4;overflow=hidden;points=[[0,0.5],[1,0.5]];portConstraint=eastwest;rotatable=0;" parent="6y9VKtrtzMZBTGJmUXlC-21" vertex="1">
          <mxGeometry y="150" width="160" height="30" as="geometry" />
        </mxCell>
        <mxCell id="6y9VKtrtzMZBTGJmUXlC-27" style="edgeStyle=orthogonalEdgeStyle;rounded=0;orthogonalLoop=1;jettySize=auto;html=1;entryX=1;entryY=0.5;entryDx=0;entryDy=0;exitX=0;exitY=0.5;exitDx=0;exitDy=0;" parent="WIyWlLk6GJQsqaUBKTNV-1" source="6y9VKtrtzMZBTGJmUXlC-14" target="6y9VKtrtzMZBTGJmUXlC-2" edge="1">
          <mxGeometry relative="1" as="geometry" />
        </mxCell>
        <mxCell id="6y9VKtrtzMZBTGJmUXlC-29" style="edgeStyle=orthogonalEdgeStyle;rounded=0;orthogonalLoop=1;jettySize=auto;html=1;entryX=1;entryY=0.5;entryDx=0;entryDy=0;exitX=0;exitY=0.5;exitDx=0;exitDy=0;" parent="WIyWlLk6GJQsqaUBKTNV-1" source="6y9VKtrtzMZBTGJmUXlC-15" target="6y9VKtrtzMZBTGJmUXlC-2" edge="1">
          <mxGeometry relative="1" as="geometry" />
        </mxCell>
        <mxCell id="6y9VKtrtzMZBTGJmUXlC-30" style="edgeStyle=orthogonalEdgeStyle;rounded=0;orthogonalLoop=1;jettySize=auto;html=1;entryX=1;entryY=0.5;entryDx=0;entryDy=0;" parent="WIyWlLk6GJQsqaUBKTNV-1" source="6y9VKtrtzMZBTGJmUXlC-10" target="6y9VKtrtzMZBTGJmUXlC-2" edge="1">
          <mxGeometry relative="1" as="geometry" />
        </mxCell>
        <mxCell id="6y9VKtrtzMZBTGJmUXlC-31" style="edgeStyle=orthogonalEdgeStyle;rounded=0;orthogonalLoop=1;jettySize=auto;html=1;entryX=1;entryY=0.5;entryDx=0;entryDy=0;" parent="WIyWlLk6GJQsqaUBKTNV-1" source="6y9VKtrtzMZBTGJmUXlC-11" target="6y9VKtrtzMZBTGJmUXlC-2" edge="1">
          <mxGeometry relative="1" as="geometry" />
        </mxCell>
        <mxCell id="6y9VKtrtzMZBTGJmUXlC-32" style="edgeStyle=orthogonalEdgeStyle;rounded=0;orthogonalLoop=1;jettySize=auto;html=1;entryX=1;entryY=0.5;entryDx=0;entryDy=0;" parent="WIyWlLk6GJQsqaUBKTNV-1" source="6y9VKtrtzMZBTGJmUXlC-6" target="6y9VKtrtzMZBTGJmUXlC-2" edge="1">
          <mxGeometry relative="1" as="geometry" />
        </mxCell>
        <mxCell id="6y9VKtrtzMZBTGJmUXlC-33" style="edgeStyle=orthogonalEdgeStyle;rounded=0;orthogonalLoop=1;jettySize=auto;html=1;entryX=1;entryY=0.5;entryDx=0;entryDy=0;" parent="WIyWlLk6GJQsqaUBKTNV-1" source="6y9VKtrtzMZBTGJmUXlC-22" target="6y9VKtrtzMZBTGJmUXlC-9" edge="1">
          <mxGeometry relative="1" as="geometry" />
        </mxCell>
        <mxCell id="6y9VKtrtzMZBTGJmUXlC-35" style="edgeStyle=orthogonalEdgeStyle;rounded=0;orthogonalLoop=1;jettySize=auto;html=1;entryX=1;entryY=0.5;entryDx=0;entryDy=0;exitX=0;exitY=0.5;exitDx=0;exitDy=0;" parent="WIyWlLk6GJQsqaUBKTNV-1" source="6y9VKtrtzMZBTGJmUXlC-26" target="6y9VKtrtzMZBTGJmUXlC-17" edge="1">
          <mxGeometry relative="1" as="geometry" />
        </mxCell>
        <mxCell id="ypDXXTXjuSUmnG6Ys3WS-1" style="edgeStyle=orthogonalEdgeStyle;rounded=0;orthogonalLoop=1;jettySize=auto;html=1;entryX=0;entryY=0.5;entryDx=0;entryDy=0;startArrow=none;startFill=0;endArrow=classic;endFill=1;startSize=15;endSize=6;" edge="1" parent="WIyWlLk6GJQsqaUBKTNV-1" source="ypDXXTXjuSUmnG6Ys3WS-0" target="6y9VKtrtzMZBTGJmUXlC-9">
          <mxGeometry relative="1" as="geometry" />
        </mxCell>
      </root>
    </mxGraphModel>
  </diagram>
</mxfile>
